<?xml version="1.0" encoding="UTF-8"?><!DOCTYPE svg PUBLIC "-//W3C//DTD SVG 1.1//EN" "http://www.w3.org/Graphics/SVG/1.1/DTD/svg11.dtd"><svg xmlns="http://www.w3.org/2000/svg" xmlns:xlink="http://www.w3.org/1999/xlink"><defs/><symbol id="checked" viewBox="0 0 26 26"><path d="M.3 14c-.2-.2-.3-.5-.3-.7s.1-.5.3-.7l1.4-1.4c.4-.4 1-.4 1.4 0l.1.1 5.5 5.9c.2.2.5.2.7 0L22.8 3.3h.1c.4-.4 1-.4 1.4 0l1.4 1.4c.4.4.4 1 0 1.4l-16 16.6c-.2.2-.4.3-.7.3-.3 0-.5-.1-.7-.3L.5 14.3.3 14z"/></symbol><symbol id="close-cross" viewBox="0 0 12 12"><path fill="inherit" fill-rule="evenodd" d="M7.414 6l4.242-4.242a.998.998 0 0 0 0-1.415.998.998 0 0 0-1.414 0L6 4.587 1.758.344a.998.998 0 0 0-1.415 0 .998.998 0 0 0 0 1.414L4.587 6 .344 10.242a.998.998 0 0 0 0 1.415.998.998 0 0 0 1.414 0L6 7.413l4.242 4.242a.998.998 0 0 0 1.415 0 .998.998 0 0 0 0-1.414L7.413 6z"/></symbol></svg>