<?xml version="1.0" encoding="UTF-8"?><!DOCTYPE svg PUBLIC "-//W3C//DTD SVG 1.1//EN" "http://www.w3.org/Graphics/SVG/1.1/DTD/svg11.dtd"><svg xmlns="http://www.w3.org/2000/svg" xmlns:xlink="http://www.w3.org/1999/xlink"><defs/><symbol id="close-cross" viewBox="0 0 12 12"><path fill="inherit" fill-rule="evenodd" d="M7.414 6l4.242-4.242a.998.998 0 0 0 0-1.415.998.998 0 0 0-1.414 0L6 4.587 1.758.344a.998.998 0 0 0-1.415 0 .998.998 0 0 0 0 1.414L4.587 6 .344 10.242a.998.998 0 0 0 0 1.415.998.998 0 0 0 1.414 0L6 7.413l4.242 4.242a.998.998 0 0 0 1.415 0 .998.998 0 0 0 0-1.414L7.413 6z"/></symbol></svg>